<svg width="76" height="20" viewBox="0 0 76 20" fill="none" xmlns="http://www.w3.org/2000/svg">
<path d="M0.75 4.36364V16H3.84091V9.22727H3.93182L6.52273 15.9091H8.38636L10.9773 9.27273H11.0682V16H14.1591V4.36364H10.2273L7.52273 10.9545H7.38636L4.68182 4.36364H0.75ZM18.679 16L19.3494 13.7727H23.1903L23.8608 16H27.2699L23.429 4.36364H19.1108L15.2699 16H18.679ZM20.0653 11.4091L21.2244 7.56818H21.3153L22.4744 11.4091H20.0653ZM28.3906 16H31.5497V13L32.5952 11.6364L35.2088 16H38.9815L34.9588 9.54545L38.8906 4.36364H35.2088L31.7088 9.06818H31.5497V4.36364H28.3906V16ZM42.8509 16L43.5213 13.7727H47.3622L48.0327 16H51.4418L47.6009 4.36364H43.2827L39.4418 16H42.8509ZM44.419 3.27273H46.4872L45.3963 0.727272H42.7145L44.419 3.27273ZM44.2372 11.4091L45.3963 7.56818H45.4872L46.6463 11.4091H44.2372ZM52.5625 16H55.7216V12.1591H56.8125L58.858 16H62.2898L59.9261 11.6591C61.1648 11.0625 61.9034 9.93182 61.9034 8.31818C61.9034 5.84091 60.1705 4.36364 57.5852 4.36364H52.5625V16ZM55.7216 9.70455V6.88636H56.8352C57.9432 6.88636 58.608 7.31818 58.608 8.31818C58.608 9.3125 57.9432 9.70455 56.8352 9.70455H55.7216ZM66.2727 16L66.9432 13.7727H70.7841L71.4545 16H74.8636L71.0227 4.36364H66.7045L62.8636 16H66.2727ZM67.6591 11.4091L68.8182 7.56818H68.9091L70.0682 11.4091H67.6591Z" fill="black"/>
</svg>
