<svg width="32" height="32" viewBox="0 0 32 32" fill="none" xmlns="http://www.w3.org/2000/svg">
<path d="M26.3214 9.87524C27.8123 12.3886 28.3345 15.3597 27.7898 18.2308C27.2451 21.1018 25.671 23.6753 23.3631 25.4679C21.0553 27.2606 18.1724 28.149 15.2558 27.9665C12.3393 27.784 9.58966 26.5431 7.52329 24.4767C5.45693 22.4104 4.21597 19.6607 4.03345 16.7442C3.85092 13.8276 4.73938 10.9447 6.532 8.63687C8.32462 6.32901 10.8981 4.75494 13.7691 4.21023C16.6402 3.66551 19.6113 4.18763 22.1247 5.67854L22.1247 5.67867L26.2692 4.4945C26.4407 4.44551 26.6222 4.44326 26.7948 4.488C26.9674 4.53273 27.125 4.62281 27.2511 4.74892C27.3772 4.87502 27.4673 5.03255 27.512 5.20519C27.5567 5.37782 27.5545 5.55928 27.5055 5.73075L26.3213 9.87532L26.3214 9.87524Z" stroke="black" stroke-width="4" stroke-linecap="round" stroke-linejoin="round"/>
<path d="M22.2782 17.6835C22.0571 18.508 21.6758 19.2808 21.156 19.9579C20.6363 20.635 19.9882 21.2031 19.2489 21.6298C18.5096 22.0564 17.6935 22.3333 16.8472 22.4446C16.0009 22.5558 15.1409 22.4993 14.3165 22.2782" stroke="black" stroke-width="3" stroke-linecap="round" stroke-linejoin="round"/>
</svg>
